<svg xmlns="http://www.w3.org/2000/svg" width="47.948" height="47.948" viewBox="0 0 47.948 47.948"><path d="M0 23.974C0 10.734 10.733 0 23.974 0s23.974 10.733 23.974 23.974-10.733 23.974-23.974 23.974S0 37.215 0 23.974" fill="#cc5266"/><path d="M2.211 23.974c0-12.02 9.744-21.763 21.763-21.763s21.763 9.744 21.763 21.763-9.744 21.763-21.763 21.763S2.211 35.993 2.211 23.974" fill="#ff6680"/><path d="M39.152 14.455v19.038a1.12 1.12 0 0 1-.65 1.019l-14.558 6.719a1.12 1.12 0 0 1-.94 0l-14.558-6.72a1.12 1.12 0 0 1-.65-1.018V14.454a1.12 1.12 0 0 1 .65-1.019l14.558-6.719a1.12 1.12 0 0 1 .94 0l14.558 6.72c.397.183.651.58.65 1.018m-27.56 0 11.882 5.488 11.882-5.488-11.882-5.487zm-1.556 18.321 12.318 5.689V21.89l-12.318-5.689zm26.876 0V16.201l-12.318 5.69v16.573z" fill="#fff"/><path d="M32.346 36.169v-2.678h-2.678c-1.365 0-2.472-.953-2.472-2.128s1.107-2.128 2.472-2.128h2.678v-2.678c0-1.365.953-2.472 2.128-2.472s2.128 1.107 2.128 2.472v2.678h2.678c1.365 0 2.472.952 2.472 2.128 0 1.175-1.107 2.128-2.472 2.128h-2.678v2.678c0 1.365-.953 2.472-2.128 2.472s-2.128-1.107-2.128-2.472z" fill="none" stroke="#ff6680" stroke-width="4"/><path d="M32.346 36.169v-2.678h-2.678c-1.365 0-2.472-.953-2.472-2.128s1.107-2.129 2.472-2.129h2.678v-2.677c0-1.365.953-2.472 2.128-2.472s2.128 1.107 2.128 2.472v2.677h2.678c1.365 0 2.472.953 2.472 2.129 0 1.175-1.107 2.128-2.472 2.128h-2.678v2.678c0 1.365-.952 2.472-2.128 2.472-1.175 0-2.128-1.107-2.128-2.472" fill="#fff"/></svg>